<?xml version="1.0" encoding="iso-8859-1"?>
<!-- Generator: Adobe Illustrator 19.0.0, SVG Export Plug-In . SVG Version: 6.00 Build 0)  -->
<svg version="1.1" id="Capa_1" xmlns="http://www.w3.org/2000/svg" xmlns:xlink="http://www.w3.org/1999/xlink" x="0px" y="0px"
	 viewBox="0 0 468.293 468.293" style="enable-background:new 0 0 468.293 468.293;" xml:space="preserve">
<path style="fill:#E56353;" d="M54.905,132.429v79.474c0,6.897-5.591,12.488-12.488,12.488H23.622
	C10.576,224.391,0,234.967,0,248.013v50.395c0,6.897,5.591,12.488,12.488,12.488h443.317c6.897,0,12.488-5.591,12.488-12.488
	V132.429c0-6.897-5.591-12.488-12.488-12.488H67.392C60.496,119.941,54.905,125.532,54.905,132.429z"/>
<path style="fill:#D15241;" d="M0,285.872v12.536c0,6.897,5.591,12.488,12.488,12.488h443.317c6.897,0,12.488-5.591,12.488-12.488
	v-12.536H0z"/>
<circle style="fill:#3A556A;" cx="376.258" cy="310.888" r="37.463"/>
<circle style="fill:#D5D6DB;" cx="376.258" cy="310.888" r="23.415"/>
<circle style="fill:#64798A;" cx="376.258" cy="310.888" r="11.707"/>
<circle style="fill:#3A556A;" cx="79.547" cy="310.888" r="37.463"/>
<circle style="fill:#D5D6DB;" cx="79.547" cy="310.888" r="23.415"/>
<circle style="fill:#64798A;" cx="79.547" cy="310.888" r="11.707"/>
<rect x="54.903" y="144.719" style="fill:#E1E6E9;" width="51.962" height="61.883"/>
<polygon style="fill:#D5D6DB;" points="106.866,206.605 54.905,206.605 106.866,144.719 "/>
<g>
	<rect x="130.847" y="144.719" style="fill:#E1E6E9;" width="68.271" height="61.883"/>
	<rect x="218.83" y="144.719" style="fill:#E1E6E9;" width="68.271" height="61.883"/>
</g>
<polygon style="fill:#D5D6DB;" points="287.103,206.605 218.829,206.605 287.103,144.719 "/>
<rect x="306.813" y="144.719" style="fill:#E1E6E9;" width="68.271" height="61.883"/>
<g>
	<polygon style="fill:#D5D6DB;" points="375.085,206.605 306.812,206.605 375.085,144.719 	"/>
	<polygon style="fill:#D5D6DB;" points="199.121,206.605 130.847,206.605 199.121,144.719 	"/>
</g>
<rect x="416.031" y="144.719" style="fill:#3A556A;" width="42.527" height="141.156"/>
<g>
</g>
<g>
</g>
<g>
</g>
<g>
</g>
<g>
</g>
<g>
</g>
<g>
</g>
<g>
</g>
<g>
</g>
<g>
</g>
<g>
</g>
<g>
</g>
<g>
</g>
<g>
</g>
<g>
</g>
</svg>
